<?xml version="1.0" encoding="utf-8"?>
<!-- Generator: Adobe Illustrator 19.2.1, SVG Export Plug-In . SVG Version: 6.00 Build 0)  -->
<svg version="1.1" id="Layer_1" xmlns="http://www.w3.org/2000/svg" xmlns:xlink="http://www.w3.org/1999/xlink" x="0px" y="0px"
	 viewBox="0 0 500 500" enable-background="new 0 0 500 500" xml:space="preserve">
<g>
	<path style="fill:#69A5D8" d="M369.8,240H260.5V130.7c0-5.5-4.5-10-10-10s-10,4.5-10,10V240H131.2c-5.5,0-10,4.5-10,10s4.5,10,10,10h109.3v109.3
		c0,5.5,4.5,10,10,10s10-4.5,10-10V260h109.3c5.5,0,10-4.5,10-10S375.4,240,369.8,240z"/>
	<path style="fill:#69A5D8" d="M416.7,83.9C372.3,39.5,313.3,15,250.5,15c-62.8,0-121.8,24.4-166.2,68.8C40,128.3,15.5,187.3,15.5,250
		S40,371.8,84.3,416.2c44.4,44.4,103.4,68.8,166.2,68.8c62.8,0,121.8-24.4,166.2-68.8s68.8-103.4,68.8-166.2S461.1,128.3,416.7,83.9
		z M402.5,402.1c-40.6,40.6-94.6,63-152,63s-111.4-22.4-152-63c-40.6-40.6-63-94.6-63-152s22.4-111.4,63-152
		c40.6-40.6,94.6-63,152-63s111.4,22.4,152,63c40.6,40.6,63,94.6,63,152S443.2,361.5,402.5,402.1z"/>
</g>
</svg>
