<?xml version="1.0" encoding="utf-8"?>
<!-- Generator: Adobe Illustrator 17.1.0, SVG Export Plug-In . SVG Version: 6.00 Build 0)  -->
<!DOCTYPE svg PUBLIC "-//W3C//DTD SVG 1.1//EN" "http://www.w3.org/Graphics/SVG/1.1/DTD/svg11.dtd">
<svg version="1.1" id="Layer_1" xmlns="http://www.w3.org/2000/svg" xmlns:xlink="http://www.w3.org/1999/xlink" x="0px" y="0px"
	 viewBox="0 0 500 500" enable-background="new 0 0 500 500" xml:space="preserve">
<path style="fill:#69A5D8" d="M354.9,224h-14.1c20.8-22.3,33.4-52.4,33.4-85.4c0-67.9-55.1-123.9-123.9-123.9s-123.9,56-123.9,123.9
	c0,33,12.7,63,33.4,85.4h-14.1c-45.9,0-83.5,37.6-83.5,83.5v177.2h376.4V307.6C438.5,261.7,400.8,224,354.9,224z M164.9,138.7
	c0-46.8,38.6-85.4,85.4-85.4s85.4,38.6,85.4,85.4c0,43.5-32,79.3-73,85.4h-24.7C196.9,218,164.9,182.1,164.9,138.7z M399,446.2
	H101.6V307.6c0-24.8,20.2-44.1,44.1-44.1h209.3c23.9,0,44.1,19.3,44.1,44.1V446.2z"/>
</svg>
