<?xml version="1.0" encoding="utf-8"?>
<!-- Generator: Adobe Illustrator 19.2.1, SVG Export Plug-In . SVG Version: 6.00 Build 0)  -->
<svg version="1.1" id="Layer_1" xmlns="http://www.w3.org/2000/svg" xmlns:xlink="http://www.w3.org/1999/xlink" x="0px" y="0px"
	 viewBox="0 0 500 500" enable-background="new 0 0 500 500" xml:space="preserve">
<path style="fill:#69A5D8" d="M447.9,68.9c-22.7-27.4-56.2-43.1-92-43.1c-35,0-68.5,15.7-91.9,43c-4,4.5-7.1,8.5-9.7,11.6c-1.3,1.6-2.8,3.4-4,4.8
	c-1.7-2-3.9-4.8-6.1-7.5c-2.1-2.6-4.4-5.5-7.1-8.8c0-0.1-0.1-0.1-0.1-0.2c-23.8-27.8-56.5-43-92-43s-68.2,15.3-92,43
	C28.7,97.1,15.4,133.7,15.4,172c0,86.1,88.9,166.2,160.3,230.6c24.9,22.4,48.4,43.6,63.4,61.2c0.7,2,2.3,5.8,6.9,8.1
	c1.4,0.7,2.9,1.1,4.5,1.1s3.1-0.4,4.5-1.1c4.6-2.3,6.1-6.2,6.9-8.1c15-17.6,38.6-38.8,63.4-61.2c71.4-64.4,160.3-144.5,160.3-230.6
	C485.4,133.8,472.1,97.1,447.9,68.9z M311.7,387.7c-24.4,22-45.7,41.2-61.4,58.6c-15.6-17.4-37-36.6-61.4-58.6
	C120.6,326,35.4,249.2,35.4,172c0-33,11.9-65.9,32.7-90.2c19.9-23.3,47.2-36.1,76.8-36.1c29.6,0,56.8,12.8,76.7,36
	c2.6,3.2,4.9,6,6.9,8.5c8.8,11,13.6,17,21.9,17c7.8,0,12.4-5.7,19.4-14.3c2.5-3,5.5-6.8,9.2-11.1c0,0,0-0.1,0.1-0.1
	c19.6-22.9,47.6-36.1,76.8-36.1c29.8,0,57.8,13.1,76.7,35.9c0,0,0.1,0.1,0.1,0.1c20.8,24.3,32.7,57.1,32.7,90.2
	C465.4,249.2,380.2,326,311.7,387.7z"/>
</svg>
