<?xml version="1.0" encoding="utf-8"?>
<!-- Generator: Adobe Illustrator 18.1.1, SVG Export Plug-In . SVG Version: 6.00 Build 0)  -->
<svg version="1.1" id="Layer_1" xmlns="http://www.w3.org/2000/svg" xmlns:xlink="http://www.w3.org/1999/xlink" x="0px" y="0px"
	 viewBox="0 0 500 500" enable-background="new 0 0 500 500" xml:space="preserve">
<g>
	<path style="fill:#69A5D8" d="M304.4,160.3h27.2c5.5,0,10-4.5,10-10V68.8c0-5.5-4.5-10-10-10h-27.2c-5.5,0-10,4.5-10,10v81.6
		C294.4,155.9,298.9,160.3,304.4,160.3z M314.4,78.8h7.3v61.7h-7.3V78.8z"/>
	<path style="fill:#69A5D8" d="M477.3,448.2V132.2c0-2.7-1-5.2-2.9-7.1l-99.6-99.6c-1.9-1.8-4.4-2.9-7.1-2.9h-9.1H141.2H50.7c-15.5,0-28.1,12.7-28.1,28.1
		v398.7c0,15.5,12.7,28.1,28.1,28.1h398.7c15.5,0,28.1-12.6,28.1-28C477.4,449,477.3,448.6,477.3,448.2z M357.8,42.5v134.1H142.1
		V42.5C231.3,42.5,350,42.5,357.8,42.5z M385,457.5H115v-173c0-3.5,2.9-6.4,6.4-6.4h257.2c3.5,0,6.4,2.9,6.4,6.4V457.5z
		 M457.4,449.3c0,0.3,0,0.5,0,0.8c-0.4,4.2-3.9,7.4-8.1,7.4H405v-173c0-14.5-11.8-26.3-26.3-26.3H121.4c-14.5,0-26.3,11.8-26.3,26.3
		v173H50.7c-4.5,0-8.2-3.7-8.2-8.2V50.7c0-4.5,3.7-8.2,8.2-8.2c0,0,46.3,0,71.5,0v135c0,10.5,8.6,19,19,19h217.6
		c10.5,0,19-8.5,19-18.9c0-0.4-0.1-0.8-0.1-1.2V56.6l79.7,79.7V449.3z"/>
</g>
</svg>
